<!-- A sprite that contains all SVG files -->
<svg xmlns="http://www.w3.org/2000/svg" xmlns:xlink="http://www.w3.org/1999/xlink">
  <defs>
    <symbol id="triangle" xmlns="http://www.w3.org/2000/svg" viewBox="0 0 320 512">
      <path
        d="M311.9 260.8L160 353.6 8 260.8 160 0l151.9 260.8zM160 383.4L8 290.6 160 512l152-221.4-152 92.8z" />
    </symbol>
    <symbol id="cross" xmlns="http://www.w3.org/2000/svg" viewBox="0 0 320 512">
      <path
        d="M311.9 260.8L160 353.6 8 260.8 160 0l151.9 260.8zM160 383.4L8 290.6 160 512l152-221.4-152 92.8z" />
    </symbol>
    <symbol id="hexa" xmlns="http://www.w3.org/2000/svg" viewBox="0 0 320 512">
      <path
        d="M311.9 260.8L160 353.6 8 260.8 160 0l151.9 260.8zM160 383.4L8 290.6 160 512l152-221.4-152 92.8z" />
    </symbol>
    <symbol id="box" xmlns="http://www.w3.org/2000/svg" viewBox="0 0 320 512">
      <path
        d="M311.9 260.8L160 353.6 8 260.8 160 0l151.9 260.8zM160 383.4L8 290.6 160 512l152-221.4-152 92.8z" />
    </symbol>
    <symbol id="arrowUp" xmlns="http://www.w3.org/2000/svg" viewBox="0 0 320 512">
      <path
        d="M311.9 260.8L160 353.6 8 260.8 160 0l151.9 260.8zM160 383.4L8 290.6 160 512l152-221.4-152 92.8z" />
    </symbol>
    <symbol id="upDown" xmlns="http://www.w3.org/2000/svg" viewBox="0 0 320 512">
      <path
        d="M311.9 260.8L160 353.6 8 260.8 160 0l151.9 260.8zM160 383.4L8 290.6 160 512l152-221.4-152 92.8z" />
    </symbol>
  </defs>
</svg>
