<?xml version="1.0" encoding="UTF-8" standalone="no"?>
<svg
   width="680"
   zoomAndPan="magnify"
   viewBox="0 0 510 510"
   height="680"
   preserveAspectRatio="xMidYMid"
   version="1.2"
   id="svg12"
   sodipodi:docname="erc55_logo_black.svg"
   inkscape:version="1.3 (0e150ed, 2023-07-21)"
   xmlns:inkscape="http://www.inkscape.org/namespaces/inkscape"
   xmlns:sodipodi="http://sodipodi.sourceforge.net/DTD/sodipodi-0.dtd"
   xmlns="http://www.w3.org/2000/svg"
   xmlns:svg="http://www.w3.org/2000/svg">
  <sodipodi:namedview
     id="namedview12"
     pagecolor="#8c7ce9"
     bordercolor="#000000"
     borderopacity="0.25"
     inkscape:showpageshadow="2"
     inkscape:pageopacity="0.0"
     inkscape:pagecheckerboard="0"
     inkscape:deskcolor="#d1d1d1"
     inkscape:zoom="0.21851852"
     inkscape:cx="217.37288"
     inkscape:cy="366.10169"
     inkscape:window-width="1312"
     inkscape:window-height="449"
     inkscape:window-x="0"
     inkscape:window-y="39"
     inkscape:window-maximized="0"
     inkscape:current-layer="svg12" />
  <defs
     id="defs1">
    <clipPath
       id="0cd953590c">
      <path
         d="m 257,128.79297 h 296 v 390 H 257 Z m 0,0"
         id="path1" />
    </clipPath>
  </defs>
  <g
     id="3bcbf3949d"
     transform="translate(-149.38884,-127.45456)"
     style="fill:#000000">
    <g
       clip-rule="nonzero"
       clip-path="url(#0cd953590c)"
       id="g2"
       style="fill:#000000">
      <path
         style="fill:#000000;fill-opacity:1;fill-rule:nonzero;stroke:none"
         d="m 486.48828,408.62109 c -0.48047,0.2461 -1.00391,0.35547 -1.48828,0.57813 l 11.61328,-25.46094 c 0.23438,-0.51562 0.51563,-1 0.84766,-1.45703 0.32812,-0.46094 0.70312,-0.87891 1.11328,-1.26563 0.41406,-0.38281 0.86328,-0.72656 1.34375,-1.02343 0.48047,-0.29297 0.98437,-0.54297 1.51172,-0.73828 0.53125,-0.19922 1.07422,-0.33985 1.63281,-0.4336 0.55469,-0.0898 1.11719,-0.125 1.67969,-0.10156 0.5664,0.0195 1.12109,0.0937 1.67187,0.22266 0.55078,0.1289 1.08203,0.3125 1.59375,0.54687 0.51563,0.23438 1,0.51563 1.46094,0.84766 0.45703,0.32812 0.87891,0.69922 1.26172,1.11328 0.38672,0.41406 0.72656,0.85937 1.02344,1.33984 0.29687,0.48047 0.54687,0.98438 0.74218,1.51563 0.19922,0.52734 0.34375,1.07031 0.4336,1.6289 0.0898,0.5586 0.125,1.11719 0.10547,1.6836 -0.0195,0.5625 -0.0937,1.12109 -0.22266,1.66797 -0.12891,0.55078 -0.3125,1.08203 -0.54688,1.59765 l -2.57421,5.63672 z m 64.83203,-12.125 -0.008,-0.0156 -0.0937,-0.17188 c -0.27344,-0.5039 -0.59766,-0.97656 -0.96484,-1.41797 -0.36719,-0.4375 -0.77344,-0.83984 -1.21875,-1.20312 -0.44532,-0.35938 -0.92188,-0.67578 -1.42579,-0.94531 -0.50781,-0.26953 -1.03515,-0.48828 -1.58203,-0.65625 -0.55078,-0.16797 -1.10937,-0.28125 -1.67968,-0.33985 -0.57032,-0.0586 -1.14063,-0.0625 -1.71485,-0.008 -0.57031,0.0508 -1.1289,0.15625 -1.67969,0.31641 -0.55078,0.16015 -1.08203,0.37109 -1.58984,0.63672 l -48.11719,25.08984 c -2.72265,1.41797 -5.5625,2.52734 -8.52343,3.33203 -2.96094,0.80469 -5.97266,1.28906 -9.03907,1.44922 -3.0625,0.16406 -6.10937,-0.004 -9.14062,-0.49219 -3.02735,-0.49219 -5.96875,-1.29687 -8.82813,-2.41797 l -21.21093,-8.23047 -11.57813,11.20704 c -0.24219,0.23437 -0.50781,0.44531 -0.79297,0.625 -0.28515,0.18359 -0.58594,0.33593 -0.89844,0.46093 -0.3164,0.125 -0.64062,0.21485 -0.97265,0.27735 -0.33203,0.0586 -0.66797,0.0859 -1.00781,0.0781 -0.33985,-0.004 -0.67188,-0.043 -1.00391,-0.11328 -0.33203,-0.0742 -0.65234,-0.17578 -0.96094,-0.3125 -0.3125,-0.13281 -0.60547,-0.29687 -0.88281,-0.49219 -0.27734,-0.1914 -0.53516,-0.41015 -0.76953,-0.65234 -0.23828,-0.24219 -0.44531,-0.50781 -0.62891,-0.79297 -0.18359,-0.28125 -0.33984,-0.58203 -0.46094,-0.89844 -0.125,-0.3125 -0.21875,-0.63672 -0.28125,-0.96875 -0.0586,-0.33593 -0.0859,-0.67187 -0.082,-1.00781 0.004,-0.33984 0.043,-0.67578 0.11328,-1.00391 0.0742,-0.33203 0.17579,-0.65234 0.3086,-0.96484 0.13672,-0.30859 0.29687,-0.60547 0.49219,-0.88281 0.1914,-0.27735 0.40625,-0.53516 0.65234,-0.77344 l 13.95312,-13.50781 0.082,-0.0547 19.86718,-20.24609 c 0.3711,-0.36719 0.70703,-0.76563 1.00391,-1.19532 0.29297,-0.42968 0.54687,-0.88281 0.75391,-1.36328 0.20703,-0.48047 0.36718,-0.97265 0.47656,-1.48437 0.11328,-0.50781 0.17187,-1.02344 0.18359,-1.54688 0.0117,-0.52343 -0.0273,-1.03906 -0.11328,-1.55468 -0.0898,-0.51563 -0.22656,-1.01563 -0.41406,-1.50391 -0.1875,-0.48828 -0.41797,-0.95313 -0.69141,-1.39453 -0.27734,-0.44141 -0.59375,-0.85547 -0.94922,-1.23828 -0.40625,-0.39844 -0.84375,-0.75782 -1.32031,-1.07422 -0.47266,-0.31641 -0.97266,-0.58594 -1.5,-0.80469 -0.52344,-0.22266 -1.06641,-0.39062 -1.625,-0.50391 -0.55859,-0.11718 -1.12109,-0.17578 -1.69141,-0.18359 -0.57031,-0.004 -1.13671,0.043 -1.69531,0.14453 -0.5625,0.10547 -1.10937,0.26172 -1.63672,0.46875 -0.53125,0.20703 -1.03906,0.46485 -1.51953,0.77344 -0.48047,0.30469 -0.92578,0.65234 -1.33984,1.04687 l -10.80078,10.8086 c -2.63282,2.64844 -5.50391,5.01172 -8.60547,7.08984 -3.10156,2.07813 -6.375,3.83203 -9.82813,5.26172 -3.44922,1.42969 -7.0039,2.50391 -10.66797,3.22656 -3.66406,0.72657 -7.36328,1.08203 -11.09765,1.07032 h -0.75 c -10.14453,-0.008 -19.91797,1.88281 -29.32031,5.67968 -3.16016,1.33203 -6.05469,3.09766 -8.67969,5.30078 -2.62891,2.19922 -4.875,4.73829 -6.74219,7.61329 -0.14453,0.20312 -0.30078,0.39453 -0.47656,0.57421 -0.0352,0.17969 -0.0859,0.35547 -0.14063,0.52735 -1.63281,3.28125 -2.86718,6.70312 -3.70703,10.26562 -0.83984,3.56641 -1.26172,7.17969 -1.26953,10.83985 0,0.33984 -0.0312,0.67968 -0.0937,1.01172 -0.0664,0.33203 -0.16406,0.65625 -0.29297,0.97265 -0.1289,0.3125 -0.28906,0.61328 -0.47656,0.89453 -0.1875,0.28125 -0.40234,0.54297 -0.64063,0.78516 -0.24218,0.24219 -0.5,0.45703 -0.78515,0.64453 -0.28125,0.1875 -0.57813,0.34766 -0.89063,0.48047 -0.3164,0.12891 -0.64062,0.22656 -0.97265,0.29297 -0.33203,0.0664 -0.66797,0.10156 -1.00782,0.10156 -0.33984,0 -0.67578,-0.0352 -1.01171,-0.10156 -0.33204,-0.0664 -0.65625,-0.16406 -0.96875,-0.29297 -0.3125,-0.13281 -0.61329,-0.29297 -0.89454,-0.48047 -0.28125,-0.1875 -0.54296,-0.40234 -0.78125,-0.64453 -0.24218,-0.24219 -0.45703,-0.50391 -0.64453,-0.78516 -0.1875,-0.28125 -0.34375,-0.58203 -0.47265,-0.89453 -0.13282,-0.3164 -0.22657,-0.64062 -0.29297,-0.97265 -0.0664,-0.33204 -0.0977,-0.67188 -0.0977,-1.01172 0.0352,-3.39063 0.36719,-6.75782 0.9961,-10.09375 l -67.98438,53.67968 c -0.22266,0.16407 -0.375,0.375 -0.45703,0.64063 -0.0781,0.26172 -0.0742,0.52344 0.0195,0.78516 11.10547,22.2539 30.21484,35.53906 51.125,35.53906 0.62891,0 1.23047,-0.008 1.83594,-0.0352 L 334.23828,481.875 c 3.44141,-5.55469 7.45313,-10.65625 12.03906,-15.3125 4.58594,-4.65234 9.62891,-8.73828 15.13282,-12.25781 15.1914,-9.48047 28.82812,-11.44922 50.3789,-7.28125 l 27.66797,5.37109 c 5.30469,0.74219 10.60547,0.73047 15.90625,-0.0391 5.30078,-0.76953 10.38672,-2.26563 15.26172,-4.48438 l 77.17187,-39.92187 c 0.4961,-0.25781 0.96094,-0.5586 1.39844,-0.91016 0.4336,-0.34765 0.82813,-0.73828 1.1875,-1.16406 0.35938,-0.42969 0.66797,-0.88672 0.9336,-1.37891 0.26953,-0.48828 0.48437,-1 0.64843,-1.53515 0.16016,-0.53125 0.27344,-1.07813 0.32813,-1.63282 0.0547,-0.55468 0.0547,-1.10937 0,-1.66406 -0.0547,-0.55469 -0.16406,-1.10156 -0.32813,-1.63281 -0.16406,-0.53516 -0.3789,-1.04688 -0.64453,-1.53516 z m -176.79687,-144.58984 42.51953,79.89453 42.50781,-79.89062 -42.51562,12.96093 z m 93.92578,-26.51563 -51.40235,-96.59765 -51.41015,96.63672 51.40234,15.69531 z m 0,0"
         id="path2" />
    </g>
    <g
       style="fill:#000000;fill-opacity:1"
       id="g4">
      <g
         transform="translate(237.52064,635.05365)"
         id="g3"
         style="fill:#000000">
        <path
           style="stroke:none;fill:#000000"
           d="m 59.578125,-20.46875 c 0.914063,0.21875 1.476563,0.683594 1.6875,1.390625 0.21875,0.710937 0.289063,1.664063 0.21875,2.859375 -0.136719,2.761719 -0.351563,5.09375 -0.640625,7 -0.28125,1.90625 -0.632812,3.636719 -1.046875,5.1875 -0.355469,1.34375 -1.0625,2.355469 -2.125,3.03125 -1.0625,0.667969 -3.257813,1 -6.578125,1 H 9.4375 C 7.457031,0 6.023438,-0.15625 5.140625,-0.46875 4.253906,-0.789062 3.8125,-1.484375 3.8125,-2.546875 c 0,-1.195313 0.332031,-2.007813 1,-2.4375 C 5.488281,-5.410156 6.269531,-5.882812 7.15625,-6.40625 8.039062,-6.9375 8.816406,-7.910156 9.484375,-9.328125 10.160156,-10.742188 10.5,-13.039062 10.5,-16.21875 v -41.765625 c 0,-3.1875 -0.339844,-5.484375 -1.015625,-6.890625 -0.667969,-1.414062 -1.445313,-2.390625 -2.328125,-2.921875 -0.886719,-0.53125 -1.667969,-1.003906 -2.34375,-1.421875 -0.667969,-0.425781 -1,-1.242188 -1,-2.453125 0,-1.050781 0.441406,-1.738281 1.328125,-2.0625 0.882813,-0.320313 2.316406,-0.484375 4.296875,-0.484375 l 40.171875,-0.09375 c 3.113281,0 5.144531,0.230469 6.09375,0.6875 0.957031,0.460938 1.6875,1.398438 2.1875,2.8125 0.5625,1.40625 1.070313,3.03125 1.53125,4.875 0.457031,1.835938 0.863281,3.917969 1.21875,6.25 0.207031,1.199219 0.238281,2.1875 0.09375,2.96875 -0.136719,0.78125 -0.625,1.3125 -1.46875,1.59375 -0.917969,0.28125 -1.730469,0.140625 -2.4375,-0.421875 -0.710937,-0.570313 -1.453125,-1.53125 -2.234375,-2.875 -1.980469,-3.3125 -4.171875,-5.816406 -6.578125,-7.515625 -2.398437,-1.695312 -5.398437,-2.546875 -9,-2.546875 h -5.40625 c -3.117187,0 -5.449219,0.179687 -7,0.53125 -1.554687,0.355469 -2.578125,0.886719 -3.078125,1.59375 -0.492188,0.699219 -0.734375,1.617187 -0.734375,2.75 v 11.765625 c 0,2.40625 0.671875,3.875 2.015625,4.40625 1.34375,0.53125 3.179688,0.796875 5.515625,0.796875 h 2 c 2.476563,0 4.351563,-0.175781 5.625,-0.53125 1.269531,-0.351563 2.222656,-0.757813 2.859375,-1.21875 0.632812,-0.457031 1.164062,-0.863281 1.59375,-1.21875 0.425781,-0.351563 1.0625,-0.53125 1.90625,-0.53125 1.488281,0 2.476562,1.09375 2.96875,3.28125 l 2.328125,10.5 c 0.425781,1.980469 0.53125,3.289063 0.3125,3.921875 -0.210937,0.636719 -0.773437,1.09375 -1.6875,1.375 -1.0625,0.28125 -2,-0.05078 -2.8125,-1 -0.8125,-0.957031 -1.714844,-2.125 -2.703125,-3.5 -0.992188,-1.382812 -2.28125,-2.640625 -3.875,-3.765625 -1.585938,-1.132813 -3.757812,-1.703125 -6.515625,-1.703125 h -2 c -2.335937,0 -4.171875,0.265625 -5.515625,0.796875 -1.34375,0.53125 -2.015625,2 -2.015625,4.40625 V -10.8125 c 0,1.199219 0.265625,2.171875 0.796875,2.921875 0.53125,0.742187 1.585938,1.289063 3.171875,1.640625 1.59375,0.355469 3.976563,0.53125 7.15625,0.53125 L 41.5625,-5.828125 c 2.75,0 4.921875,-0.382813 6.515625,-1.15625 1.59375,-0.78125 2.882813,-1.945313 3.875,-3.5 0.988281,-1.5625 2.007813,-3.507813 3.0625,-5.84375 0.851563,-1.832031 1.632813,-3.015625 2.34375,-3.546875 0.707031,-0.53125 1.445313,-0.726562 2.21875,-0.59375 z m 0,0"
           id="path3" />
      </g>
    </g>
    <g
       style="fill:#000000;fill-opacity:1"
       id="g6">
      <g
         transform="translate(302.82881,635.05365)"
         id="g5"
         style="fill:#000000">
        <path
           style="stroke:none;fill:#000000"
           d="m 50.46875,-30.328125 9.953125,18.03125 c 0.988281,1.773437 1.992187,3.117187 3.015625,4.03125 1.03125,0.917969 1.953125,1.605469 2.765625,2.0625 0.8125,0.460937 1.460937,0.9375 1.953125,1.4375 0.5,0.492187 0.75,1.230469 0.75,2.21875 C 68.90625,-0.847656 67.316406,0 64.140625,0 H 50.5625 C 48.875,0 47.585938,-0.191406 46.703125,-0.578125 45.816406,-0.972656 45.375,-1.695312 45.375,-2.75 c 0,-0.78125 0.242188,-1.453125 0.734375,-2.015625 0.5,-0.570313 1.015625,-1.175781 1.546875,-1.8125 0.53125,-0.632813 0.8125,-1.425781 0.84375,-2.375 0.03906,-0.957031 -0.367188,-2.210937 -1.21875,-3.765625 l -6.46875,-11.875 c -0.917969,-1.625 -1.980469,-2.71875 -3.1875,-3.28125 -1.199219,-0.570312 -3.246094,-1.035156 -6.140625,-1.390625 -2.824219,-0.351563 -4.980469,-0.472656 -6.46875,-0.359375 -1.480469,0.105469 -2.21875,1.039062 -2.21875,2.796875 v 10.296875 c 0,3.105469 0.316406,5.382812 0.953125,6.828125 0.632812,1.449219 1.394531,2.476563 2.28125,3.078125 0.882812,0.605469 1.644531,1.15625 2.28125,1.65625 0.632812,0.492188 0.953125,1.296875 0.953125,2.421875 0,0.917969 -0.429687,1.574219 -1.28125,1.96875 C 27.140625,-0.191406 25.691406,0 23.640625,0 H 9.4375 c -3.75,0 -5.625,-0.847656 -5.625,-2.546875 0,-1.125 0.332031,-1.929687 1,-2.421875 0.675781,-0.5 1.457031,-1.050781 2.34375,-1.65625 C 8.039062,-7.226562 8.816406,-8.253906 9.484375,-9.703125 10.160156,-11.148438 10.5,-13.425781 10.5,-16.53125 v -41.453125 c 0,-3.1875 -0.339844,-5.484375 -1.015625,-6.890625 -0.667969,-1.414062 -1.445313,-2.390625 -2.328125,-2.921875 -0.886719,-0.53125 -1.667969,-1.003906 -2.34375,-1.421875 -0.667969,-0.425781 -1,-1.242188 -1,-2.453125 0,-1.050781 0.441406,-1.738281 1.328125,-2.0625 0.882813,-0.320313 2.316406,-0.484375 4.296875,-0.484375 h 21.203125 c 7.695313,0 14.054687,1.117188 19.078125,3.34375 5.019531,2.230469 8.75,5.132812 11.1875,8.703125 2.4375,3.5625 3.65625,7.433594 3.65625,11.609375 0,4.949219 -1.203125,9.136719 -3.609375,12.5625 -2.398437,3.429688 -5.890625,5.984375 -10.484375,7.671875 z m -14.53125,-4.125 c 5.019531,0.28125 8.890625,-0.9375 11.609375,-3.65625 2.71875,-2.71875 4.078125,-6.410156 4.078125,-11.078125 0,-3.53125 -0.851562,-6.765625 -2.546875,-9.703125 -1.6875,-2.9375 -4.125,-5.304687 -7.3125,-7.109375 -3.179687,-1.800781 -6.992187,-2.703125 -11.4375,-2.703125 -3.1875,0 -5.242187,0.199219 -6.15625,0.59375 -0.917969,0.386719 -1.375,1.148437 -1.375,2.28125 v 26.171875 c 0,1.34375 0.773437,2.371094 2.328125,3.078125 1.550781,0.710937 3.351562,1.226563 5.40625,1.546875 2.050781,0.3125 3.851562,0.507812 5.40625,0.578125 z m 0,0"
           id="path4" />
      </g>
    </g>
    <g
       style="fill:#000000;fill-opacity:1"
       id="g8">
      <g
         transform="translate(374.18011,635.05365)"
         id="g7"
         style="fill:#000000">
        <path
           style="stroke:none;fill:#000000"
           d="m 40.390625,1.0625 c -7.28125,0 -13.648437,-1.5 -19.09375,-4.5 -5.4375,-3.007812 -9.65625,-7.253906 -12.65625,-12.734375 -3,-5.476563 -4.5,-11.890625 -4.5,-19.234375 0,-5.582031 0.96875,-10.773438 2.90625,-15.578125 1.945313,-4.8125 4.648437,-9.035156 8.109375,-12.671875 3.46875,-3.644531 7.53125,-6.488281 12.1875,-8.53125 4.664062,-2.050781 9.6875,-3.078125 15.0625,-3.078125 3.175781,0 5.769531,0.28125 7.78125,0.84375 2.019531,0.5625 3.738281,0.84375 5.15625,0.84375 1.195312,0 2.148438,-0.242187 2.859375,-0.734375 0.707031,-0.5 1.59375,-0.75 2.65625,-0.75 0.988281,0 1.765625,0.355469 2.328125,1.0625 0.5625,0.710938 1.195312,2.195312 1.90625,4.453125 0.488281,1.773437 1,3.75 1.53125,5.9375 0.53125,2.1875 1.046875,4.875 1.546875,8.0625 0.207031,1.199219 0.171875,2.167969 -0.109375,2.90625 -0.28125,0.742187 -0.917969,1.183594 -1.90625,1.328125 -0.992188,0.07422 -1.804688,-0.273438 -2.4375,-1.046875 -0.636719,-0.78125 -1.449219,-1.84375 -2.4375,-3.1875 -2.335938,-3.601563 -5.148438,-6.710937 -8.4375,-9.328125 -3.28125,-2.613281 -7.46875,-3.921875 -12.5625,-3.921875 -4.875,0 -9.046875,1.273437 -12.515625,3.8125 -3.460937,2.542969 -6.125,5.902344 -8,10.078125 -1.867187,4.167969 -2.796875,8.757812 -2.796875,13.765625 0,6.292969 1.128906,12.039063 3.390625,17.234375 2.257813,5.199219 5.457031,9.320312 9.59375,12.359375 C 34.085938,-8.515625 38.976562,-7 44.625,-7 c 4.945312,0 9.117188,-0.929688 12.515625,-2.796875 3.394531,-1.875 6.4375,-4.265625 9.125,-7.171875 0.769531,-0.84375 1.507813,-1.15625 2.21875,-0.9375 0.707031,0.210938 1.179687,0.71875 1.421875,1.53125 0.25,0.8125 0.05469,1.78125 -0.578125,2.90625 -1.125,2.125 -2.996094,4.304688 -5.609375,6.53125 -2.617188,2.21875 -5.886719,4.109375 -9.8125,5.671875 C 49.988281,0.285156 45.484375,1.0625 40.390625,1.0625 Z m 0,0"
           id="path6" />
      </g>
    </g>
    <g
       style="fill:#000000;fill-opacity:1"
       id="g10">
      <g
         transform="translate(447.54578,635.05365)"
         id="g9"
         style="fill:#000000">
        <path
           style="stroke:none;fill:#000000"
           d="M 31.171875,1.0625 C 25.941406,1.0625 21.414062,0.25 17.59375,-1.375 13.78125,-3 10.6875,-5.066406 8.3125,-7.578125 c -2.367188,-2.507813 -4.074219,-5 -5.125,-7.46875 -0.5,-1.414063 -0.21875,-2.425781 0.84375,-3.03125 1.0625,-0.601563 2.050781,-0.375 2.96875,0.6875 2.613281,2.898437 5.6875,5.214844 9.21875,6.953125 3.53125,1.730469 7.59375,2.59375 12.1875,2.59375 4.53125,0 8.207031,-1.320312 11.03125,-3.96875 2.820312,-2.65625 4.234375,-6 4.234375,-10.03125 0,-4.238281 -1.203125,-7.679688 -3.609375,-10.328125 -2.398438,-2.65625 -5.804688,-4.757813 -10.21875,-6.3125 -4.417969,-1.550781 -9.667969,-2.679687 -15.75,-3.390625 -2.1875,-0.207031 -2.964844,-1.375 -2.328125,-3.5 l 7.953125,-26.390625 c 0.5,-1.695313 1.59375,-2.515625 3.28125,-2.453125 6.21875,0.429688 12.828125,0.429688 19.828125,0 2.6875,-0.132812 4.628906,-0.484375 5.828125,-1.046875 1.207031,-0.570313 2.144531,-1.117187 2.8125,-1.640625 0.675781,-0.53125 1.472656,-0.796875 2.390625,-0.796875 0.707031,0 1.179687,0.304687 1.421875,0.90625 0.25,0.59375 0.335938,1.386719 0.265625,2.375 -0.0625,1.125 -0.21875,2.203125 -0.46875,3.234375 -0.25,1.023438 -0.621094,2.167969 -1.109375,3.4375 -0.5,1.34375 -1.210938,2.304688 -2.125,2.875 -0.917969,0.5625 -2.542969,0.914062 -4.875,1.046875 -3.53125,0.21875 -7.367188,0.328125 -11.5,0.328125 -4.136719,0 -8.21875,-0.140625 -12.25,-0.421875 L 19.40625,-51 c 12.644531,1.625 22.144531,4.683594 28.5,9.171875 6.363281,4.492187 9.546875,10.554687 9.546875,18.1875 0,4.3125 -1.09375,8.359375 -3.28125,12.140625 -2.1875,3.78125 -5.246094,6.824219 -9.171875,9.125 -3.917969,2.2929688 -8.527344,3.4375 -13.828125,3.4375 z m 0,0"
           id="path8" />
      </g>
    </g>
    <g
       style="fill:#000000;fill-opacity:1"
       id="g12">
      <g
         transform="translate(509.99142,635.05365)"
         id="g11"
         style="fill:#000000">
        <path
           style="stroke:none;fill:#000000"
           d="M 31.171875,1.0625 C 25.941406,1.0625 21.414062,0.25 17.59375,-1.375 13.78125,-3 10.6875,-5.066406 8.3125,-7.578125 c -2.367188,-2.507813 -4.074219,-5 -5.125,-7.46875 -0.5,-1.414063 -0.21875,-2.425781 0.84375,-3.03125 1.0625,-0.601563 2.050781,-0.375 2.96875,0.6875 2.613281,2.898437 5.6875,5.214844 9.21875,6.953125 3.53125,1.730469 7.59375,2.59375 12.1875,2.59375 4.53125,0 8.207031,-1.320312 11.03125,-3.96875 2.820312,-2.65625 4.234375,-6 4.234375,-10.03125 0,-4.238281 -1.203125,-7.679688 -3.609375,-10.328125 -2.398438,-2.65625 -5.804688,-4.757813 -10.21875,-6.3125 -4.417969,-1.550781 -9.667969,-2.679687 -15.75,-3.390625 -2.1875,-0.207031 -2.964844,-1.375 -2.328125,-3.5 l 7.953125,-26.390625 c 0.5,-1.695313 1.59375,-2.515625 3.28125,-2.453125 6.21875,0.429688 12.828125,0.429688 19.828125,0 2.6875,-0.132812 4.628906,-0.484375 5.828125,-1.046875 1.207031,-0.570313 2.144531,-1.117187 2.8125,-1.640625 0.675781,-0.53125 1.472656,-0.796875 2.390625,-0.796875 0.707031,0 1.179687,0.304687 1.421875,0.90625 0.25,0.59375 0.335938,1.386719 0.265625,2.375 -0.0625,1.125 -0.21875,2.203125 -0.46875,3.234375 -0.25,1.023438 -0.621094,2.167969 -1.109375,3.4375 -0.5,1.34375 -1.210938,2.304688 -2.125,2.875 -0.917969,0.5625 -2.542969,0.914062 -4.875,1.046875 -3.53125,0.21875 -7.367188,0.328125 -11.5,0.328125 -4.136719,0 -8.21875,-0.140625 -12.25,-0.421875 L 19.40625,-51 c 12.644531,1.625 22.144531,4.683594 28.5,9.171875 6.363281,4.492187 9.546875,10.554687 9.546875,18.1875 0,4.3125 -1.09375,8.359375 -3.28125,12.140625 -2.1875,3.78125 -5.246094,6.824219 -9.171875,9.125 -3.917969,2.2929688 -8.527344,3.4375 -13.828125,3.4375 z m 0,0"
           id="path10" />
      </g>
    </g>
  </g>
</svg>
